<?xml version="1.0" encoding="utf-8"?>
<!-- Generator: Adobe Illustrator 24.0.1, SVG Export Plug-In . SVG Version: 6.00 Build 0)  -->
<svg version="1.1" id="Layer_1" xmlns="http://www.w3.org/2000/svg" xmlns:xlink="http://www.w3.org/1999/xlink" x="0px" y="0px"
	 viewBox="0 0 1534 228.2" style="enable-background:new 0 0 1534 228.2;" xml:space="preserve">
<style type="text/css">
	.st0{fill:#FFFFFF;}
</style>
<g>
	<path class="st0" d="M625.5,28.4h-18.9c0,0-4.7,0-4.7,4.7v66.3h-29.4V33.1c0,0,0-4.7-4.7-4.7h-18.9c0,0-4.7,0-4.7,4.7v160.7
		c0,0,0,4.7,4.7,4.7h18.9c0,0,4.7,0,4.7-4.7v-66.3h29.4v66.3c0,0,0,4.7,4.7,4.7h18.9c0,0,4.7,0,4.7-4.7V33.1
		C630.2,33.1,630.2,28.4,625.5,28.4z"/>
	<path class="st0" d="M488.9,28.4c-0.8,0-1.6,0-2.3,0.1c-0.5-0.2-1.1-0.3-1.8-0.3h-31.3c0,0-0.5,0-1.2,0.2
		c-13.9,0-25.1,11.2-25.1,25c0,0.9,0,1.7,0.1,2.5c-0.1,0.3-0.1,0.6-0.1,1V171c0,0,0,0.4,0.1,1c-0.1,0.8-0.1,1.7-0.1,2.5
		c0,13.8,11.2,25,25.1,25c0.3,0,0.5,0,0.8,0s0.5,0,0.5,0h31.3c0.5,0,0.9-0.1,1.3-0.2c0.9,0.1,1.9,0.2,2.8,0.2
		c13.8,0,25.1-11.2,25.1-25c0-0.4,0-0.8-0.1-1.2c0.1-0.4,0.1-0.6,0.1-0.6v-25.3c0-4.7-4.7-4.7-4.7-4.7h-18.9c-4.7,0-4.7,4.7-4.7,4.7
		v19.2v0.1c0,0,0,3.7-3.3,4.5h-23.6c-3.3-0.9-3.3-4.5-3.3-4.5v-0.1V61.2v-0.1c0,0,0-4.7,4.7-4.7h0.6h19.4h0.6c4.7,0,4.7,4.7,4.7,4.7
		v0.1v19.1c0,0,0,4.7,4.7,4.7h18.9c0,0,4.7,0,4.7-4.7V56.6c0,0,0-0.4-0.1-0.9c0.1-0.8,0.1-1.6,0.1-2.3
		C514,39.6,502.8,28.4,488.9,28.4z"/>
	<path class="st0" d="M743.4,28.4h-58.7h-18.9c0,0-4.7,0-4.7,4.7v18.8V104v18.8V175v18.8c0,0,0,4.7,4.7,4.7h18.9h58.7
		c0,0,4.7,0,4.7-4.7V175c0,0,0-4.7-4.7-4.7h-54v-42.8h40.1c0,0,4.7,0,4.7-4.7V104c0,0,0-4.7-4.7-4.7h-40.1V56.6h54
		c0,0,4.7,0,4.7-4.7V33.1C748.1,33.1,748.1,28.4,743.4,28.4z"/>
	<path class="st0" d="M194,28.4c-0.7,0-1.5,0-2.2,0.1c-0.3,0-0.5-0.1-0.8-0.1h-35.4h-18.9c0,0-4.7,0-4.7,4.7v18.8v141.9
		c0,0,0,4.7,4.7,4.7h18.9c0,0,4.7,0,4.7-4.7v-53.5h15.3l13.3,53.5c0,0,0,4.7,4.7,4.7h18.9c0,0,4.7,0,4.7-4.7l-12.9-51.9
		c8.7-3.9,14.7-12.6,14.7-22.7c0-1.1-0.1-2.2-0.2-3.3c0.1-0.4,0.2-0.9,0.2-1.4V60.1c0,0,0-0.9-0.4-1.9c0.3-1.6,0.5-3.2,0.5-4.8
		C219.1,39.6,207.9,28.4,194,28.4z M190.7,111.4c-0.2,0.2-0.4,0.5-0.5,0.7h-29.8V56.6h25.5c1.9,1.1,3.6,2.7,4.9,4.5L190.7,111.4
		L190.7,111.4z"/>
	<path class="st0" d="M273,28.4h-18.9c0,0-4.7,0-4.7,4.7v160.7c0,0,0,4.7,4.7,4.7H273c0,0,4.7,0,4.7-4.7V33.1
		C277.7,33.1,277.7,28.4,273,28.4z"/>
	<path class="st0" d="M370.1,28.4c-0.9,0-1.7,0-2.5,0.1c-0.3-0.1-0.6-0.1-1-0.1h-29.2c0,0-0.3,0-0.8,0.1c-0.5,0-1.1-0.1-1.6-0.1
		c-13.3,0-24.2,10.3-25,23.4c0,0.2-0.1,0.4-0.1,0.6v0.9v0.1v0.1v55.1c0,0-0.3,5.2,4.1,6.7l52.8,17.9v33.5c0,0,0,3.7-3.3,4.5h-22.1
		c-2.9-0.8-3.2-3.8-3.3-4.4v-19.5c0,0,0-4.7-4.7-4.7h-18.9c0,0-4.7,0-4.7,4.7V171c0,0,0,0.4,0.1,0.9c-0.1,0.8-0.1,1.7-0.1,2.5
		c0,13.8,11.2,25,25.1,25c1.5,0,3-0.2,4.5-0.4c0.6,0.2,1.2,0.4,2,0.4h31.3c0,0,1,0,2-0.4c11.6-2.2,20.4-12.3,20.4-24.5
		c0-0.8,0-1.7-0.1-2.5c0-0.3,0.1-0.6,0.1-1v-51.7c0,0,0-0.3-0.1-0.7c0-1.6-0.5-5.8-4.1-7.1l-52.8-17.8V61c0-0.6,0.4-3.6,3.3-4.4
		h22.1c3.2,0.9,3.3,4.5,3.3,4.5v19.3c0,0,0,4.7,4.7,4.7h18.9c0,0,4.7,0,4.7-4.7V49.2c0,0,0-1.7-1.1-3.1
		C391,35.9,381.4,28.4,370.1,28.4z"/>
	<path class="st0" d="M106.4,28.4H47.7H28.8c0,0-4.7,0-4.7,4.7v18.8V104v18.8v71c0,0,0,4.7,4.7,4.7h18.9c0,0,4.7,0,4.7-4.7v-66.3
		h40.1c0,0,4.7,0,4.7-4.7V104c0,0,0-4.7-4.7-4.7H52.4V56.6h54c0,0,4.7,0,4.7-4.7V33.1C111.1,33.1,111.1,28.4,106.4,28.4z"/>
	<path class="st0" d="M1072.1,28.4c-0.9,0-1.7,0-2.5,0.1c-0.3-0.1-0.6-0.1-1-0.1h-29.2c0,0-0.3,0-0.8,0.1c-0.5,0-1.1-0.1-1.6-0.1
		c-13.3,0-24.2,10.3-25,23.4c0,0.2-0.1,0.4-0.1,0.6v0.9v0.1v0.1v55.1c0,0-0.3,5.2,4.1,6.7l52.8,17.9v33.5c0,0,0,3.7-3.3,4.5h-22.1
		c-2.9-0.8-3.2-3.8-3.3-4.4v-19.5c0,0,0-4.7-4.7-4.7h-18.9c0,0-4.7,0-4.7,4.7V171c0,0,0,0.4,0.1,0.9c-0.1,0.8-0.1,1.7-0.1,2.5
		c0,13.8,11.2,25,25.1,25c1.5,0,3-0.2,4.5-0.4c0.6,0.2,1.2,0.4,2,0.4h31.3c0,0,1,0,2-0.4c11.6-2.2,20.4-12.3,20.4-24.5
		c0-0.8,0-1.7-0.1-2.5c0-0.3,0.1-0.6,0.1-1v-51.7c0,0,0-0.3-0.1-0.7c0-1.6-0.5-5.8-4.1-7.1l-52.7-17.8V61c0-0.6,0.4-3.6,3.3-4.4
		h22.1c3.2,0.9,3.3,4.5,3.3,4.5v19.3c0,0,0,4.7,4.7,4.7h18.9c0,0,4.7,0,4.7-4.7v-27l0,0v-4.1c0,0,0-1.7-1.1-3.1
		C1093,35.9,1083.4,28.4,1072.1,28.4z"/>
	<path class="st0" d="M838.4,28.4c-0.7,0-1.4,0-2,0.1c-0.3,0-0.5-0.1-0.8-0.1h-33h-18.9c0,0-4.7,0-4.7,4.7v18.8v66.3V137v56.9
		c0,0,0,4.7,4.7,4.7h18.9c0,0,4.7,0,4.7-4.7v-52.2h28.3c0,0,0.3,0,0.9-0.1c0.7,0,1.3,0.1,2,0.1c13.8,0,24.9-11.1,25.1-24.7v-0.1V51
		c0,0,0-0.8-0.4-1.8C861.1,37.4,850.8,28.4,838.4,28.4z M835.1,61.2v47.6v0.1c0,0,0,3.7-3.3,4.5h-24.6V56.6h24.6
		c3.3,0.9,3.3,4.5,3.3,4.5V61.2z"/>
	<path class="st0" d="M1201.5,28.4h-28.8h-18.9h-28.2c0,0-4.7,0-4.7,4.7v18.8c0,0,0,4.7,4.7,4.7h23.5v137.2c0,0,0,4.7,4.7,4.7h18.9
		c0,0,4.7,0,4.7-4.7V56.6h24.1c0,0,4.7,0,4.7-4.7V33.1C1206.2,33.1,1206.2,28.4,1201.5,28.4z"/>
	<path class="st0" d="M960.8,28.7c-0.5-0.2-1.1-0.3-1.7-0.3H919c0,0-0.4,0-0.9,0.1c-12.7,1.2-22.7,11.8-22.7,24.9
		c0,1.5,0.2,3,0.4,4.4c-0.2,0.6-0.4,1.2-0.4,2v109.3c0,0,0,1,0.5,2c-0.3,1.5-0.5,3.1-0.5,4.7c0,13,10,23.7,22.8,24.9
		c0.3,0,0.6,0.1,0.9,0.1h40.1c0,0,0.7,0,1.5-0.2c12.3-1.6,21.8-12.1,21.8-24.7c0-0.5,0-0.9-0.1-1.4c0-0.2,0.1-0.3,0.1-0.5V59.8
		c0,0,0-0.9-0.4-1.9c0.3-1.5,0.4-3,0.4-4.5C982.3,40.8,973,30.4,960.8,28.7z M954,61.2V168v0.1c0,0,0,3.7-3.3,4.5h-23.8
		c-3.3-0.9-3.3-4.5-3.3-4.5V168V61.2v-0.1c0,0,0-3.7,3.3-4.5h23.8C954,57.5,954,61.1,954,61.2L954,61.2z"/>
	<ellipse class="st0" cx="1475.1" cy="164.6" rx="10.4" ry="10.4"/>
	<path class="st0" d="M1475.1,129.8c-0.3,0-0.6,0-0.9,0v-29.6c0,0,0.1-0.2,0.1-0.3c0,0-0.1-0.2-0.1-0.3V81.7
		c0-10.1-8.3-18.4-18.5-18.4h-3.5V28.1h-12.7v35.2h-64.8c-3.2,0-5.8,2.6-5.8,5.7v1.1l-9.4-7.1l6.5-7.9c2-2.4,1.7-6.1-0.8-8.1
		s-6.1-1.7-8.1,0.8l-22,26.6c-2,2.5-1.7,6.1,0.8,8.1c1.1,0.9,2.4,1.3,3.7,1.3c1.7,0,3.3-0.7,4.5-2.1l8.2-9.9l16.7,12.6V102
		c0,2.2-0.5,4.4-1.5,6.3C1354.3,93,1335,84,1314.5,84c-0.3,0-0.6,0-0.8,0l-5.9-17.6c-1.8-5.4-6.9-9.1-12.7-9.1h-5.7
		c-3.2,0-5.8,2.6-5.8,5.7v28.1c-6.7,3.3-12.9,7.7-18.4,13.1c-2.2,2.2-2.2,5.9,0,8.1s5.9,2.2,8.1,0c11-10.9,25.6-17,41.1-17
		c19.1,0,37,9.3,47.9,25c5.6,8,9.1,17.4,10,27.1c0.3,2.9,2.8,5.2,5.7,5.2l52,0.1h0.1h0.1h12c-1.3,3.6-2.1,7.6-2.1,11.7
		c0,19.1,15.6,34.7,34.8,34.7c19.2,0,34.8-15.6,34.8-34.7C1509.9,145.3,1494.3,129.8,1475.1,129.8z M1380.5,94.2V74.8h59.1v6.4
		c0.2,3.3,2.9,6,6.3,6s6.2-2.7,6.3-6v-6.4h3.5c3.8,0,7,3.1,7,6.9v12.5C1462.7,94.2,1380.5,94.2,1380.5,94.2z M1449.2,141.3H1436
		v-35.6h26.7v11.1h-15.4c-3.2,0-5.8,2.6-5.8,5.7c0,3.2,2.6,5.7,5.8,5.7h15.4v3.8C1457.5,134.1,1452.9,137.3,1449.2,141.3z
		 M1475.1,187.6c-12.8,0-23.3-10.4-23.3-23.2s10.4-23.2,23.3-23.2c12.8,0,23.3,10.4,23.3,23.2
		C1498.4,177.2,1487.9,187.6,1475.1,187.6z"/>
	<ellipse class="st0" cx="1314.5" cy="153.5" rx="18.1" ry="18"/>
	<path class="st0" d="M1315.4,108.8c-0.3,0-0.6,0-0.9,0c-24.8,0-44.9,20.1-44.9,44.7c0,6.6,1.5,12.8,4.1,18.5h-0.1
		c7.1,15.5,22.7,26.2,40.9,26.2c1.3,0,2.7-0.1,4-0.2h-0.1c14.3-1.2,26.7-9.1,34.1-20.6l0.1-0.1c0.3-0.5,0.6-1,0.9-1.5
		c0.1-0.1,0.1-0.2,0.2-0.3c0.3-0.5,0.5-1,0.8-1.5c0.1-0.1,0.1-0.3,0.2-0.4c0.2-0.5,0.5-0.9,0.7-1.4c0.1-0.2,0.2-0.4,0.2-0.5
		c0.2-0.4,0.4-0.9,0.6-1.3c0.1-0.2,0.2-0.4,0.3-0.6c0.2-0.4,0.3-0.9,0.5-1.3c0.1-0.2,0.2-0.5,0.2-0.7c0.1-0.4,0.3-0.8,0.4-1.3
		c0.1-0.3,0.2-0.5,0.2-0.8c0.1-0.4,0.2-0.8,0.3-1.2c0.1-0.3,0.1-0.6,0.2-0.9c0.1-0.4,0.2-0.8,0.3-1.2c0.1-0.3,0.1-0.6,0.2-0.9
		c0.1-0.4,0.1-0.8,0.2-1.2c0-0.3,0.1-0.7,0.1-1c0-0.4,0.1-0.8,0.1-1.2c0-0.3,0.1-0.7,0.1-1c0-0.4,0.1-0.8,0.1-1.2s0-0.8,0-1.1
		c0-0.4,0-0.7,0-1.1C1359.4,129.1,1339.8,109.2,1315.4,108.8z M1314.5,186.7c-18.4,0-33.4-14.9-33.4-33.3c0-18.3,15-33.3,33.4-33.3
		s33.4,14.9,33.4,33.3S1333,186.7,1314.5,186.7z"/>
</g>
</svg>
