<?xml version="1.0" encoding="utf-8"?>
<!-- Generator: Adobe Illustrator 23.1.1, SVG Export Plug-In . SVG Version: 6.00 Build 0)  -->
<svg version="1.1" id="Ebene_1" xmlns="http://www.w3.org/2000/svg" xmlns:xlink="http://www.w3.org/1999/xlink" x="0px" y="0px"
	 viewBox="0 0 633 380" style="enable-background:new 0 0 633 380;" xml:space="preserve">
<style type="text/css">
	.st0{fill:url(#SVGID_1_);}
	.st1{fill:url(#SVGID_2_);}
	.st2{fill:url(#SVGID_3_);}
	.st3{fill:url(#SVGID_4_);}
</style>
<g>
	
		<linearGradient id="SVGID_1_" gradientUnits="userSpaceOnUse" x1="2885.9121" y1="-722.8849" x2="2908.019" y2="-722.8849" gradientTransform="matrix(0.7296 -0.6839 0.372 0.3968 -1376.1299 2373.4646)">
		<stop  offset="0" style="stop-color:#00C9FE"/>
		<stop  offset="4.130375e-02" style="stop-color:#00CAFD;stop-opacity:0.9587"/>
		<stop  offset="0.5595" style="stop-color:#00D5EE;stop-opacity:0.4405"/>
		<stop  offset="1" style="stop-color:#00D9E9;stop-opacity:0"/>
	</linearGradient>
	<path class="st0" d="M476.6,97.8c0.4,0.4-13.4,13.9-14.2,14.6c-0.7,0.7-1.6,0.9-2,0.5c-0.4-0.4-0.1-1.3,0.6-1.9
		C461.9,110.3,476.3,97.4,476.6,97.8z"/>
	
		<radialGradient id="SVGID_2_" cx="2886.5732" cy="-722.9168" r="3.4094" gradientTransform="matrix(0.7183 -0.6953 0.5022 0.4805 -1249.3958 2466.9438)" gradientUnits="userSpaceOnUse">
		<stop  offset="0" style="stop-color:#FFFFFF"/>
		<stop  offset="0.2283" style="stop-color:#FCFCFC;stop-opacity:0.7717"/>
		<stop  offset="1" style="stop-color:#F7F7F7;stop-opacity:0"/>
	</radialGradient>
	<path class="st1" d="M465.6,108.2c0.4,0.4-2.4,3.5-3.1,4.2c-0.7,0.7-1.6,0.9-2,0.5c-0.4-0.4-0.1-1.3,0.6-1.9
		C461.9,110.3,465.2,107.8,465.6,108.2z"/>
</g>
<g>
	
		<linearGradient id="SVGID_3_" gradientUnits="userSpaceOnUse" x1="2574.8989" y1="-733.8348" x2="2597.0056" y2="-733.8348" gradientTransform="matrix(0.7296 -0.6839 0.372 0.3968 -1376.1299 2373.4646)">
		<stop  offset="0" style="stop-color:#00C9FE"/>
		<stop  offset="4.130375e-02" style="stop-color:#00CAFD;stop-opacity:0.9587"/>
		<stop  offset="0.5595" style="stop-color:#00D5EE;stop-opacity:0.4405"/>
		<stop  offset="1" style="stop-color:#00D9E9;stop-opacity:0"/>
	</linearGradient>
	<path class="st2" d="M245.7,306.2c0.4,0.4-13.4,13.9-14.2,14.6c-0.7,0.7-1.6,0.9-2,0.5c-0.4-0.4-0.1-1.3,0.6-1.9
		C230.9,318.7,245.3,305.8,245.7,306.2z"/>
	
		<radialGradient id="SVGID_4_" cx="2575.5601" cy="-733.8666" r="3.4094" gradientTransform="matrix(0.7183 -0.6953 0.5022 0.4805 -1251.4878 2464.3071)" gradientUnits="userSpaceOnUse">
		<stop  offset="0" style="stop-color:#FFFFFF"/>
		<stop  offset="0.2283" style="stop-color:#FCFCFC;stop-opacity:0.7717"/>
		<stop  offset="1" style="stop-color:#F7F7F7;stop-opacity:0"/>
	</radialGradient>
	<path class="st3" d="M234.6,316.6c0.4,0.4-2.4,3.5-3.1,4.2c-0.7,0.7-1.6,0.9-2,0.5c-0.4-0.4-0.1-1.3,0.6-1.9
		C230.9,318.7,234.2,316.2,234.6,316.6z"/>
</g>
</svg>
