<?xml version="1.0" encoding="utf-8"?>
<!-- Generator: Adobe Illustrator 23.1.1, SVG Export Plug-In . SVG Version: 6.00 Build 0)  -->
<svg version="1.1" id="Ebene_1" xmlns="http://www.w3.org/2000/svg" xmlns:xlink="http://www.w3.org/1999/xlink" x="0px" y="0px"
	 viewBox="0 0 633 380" style="enable-background:new 0 0 633 380;" xml:space="preserve">
<style type="text/css">
	.st0{fill:url(#SVGID_1_);}
	.st1{fill:url(#SVGID_2_);}
	.st2{fill:url(#SVGID_3_);}
	.st3{fill:url(#SVGID_4_);}
	.st4{fill:url(#SVGID_5_);}
	.st5{fill:url(#SVGID_6_);}
	.st6{fill:url(#SVGID_7_);}
	.st7{fill:url(#SVGID_8_);}
</style>
<g>
	
		<linearGradient id="SVGID_1_" gradientUnits="userSpaceOnUse" x1="2664.991" y1="-692.2204" x2="2732.1687" y2="-692.2204" gradientTransform="matrix(0.7296 -0.6839 0.372 0.3968 -1376.1299 2373.4646)">
		<stop  offset="0" style="stop-color:#00C9FE"/>
		<stop  offset="4.130375e-02" style="stop-color:#00CAFD;stop-opacity:0.9587"/>
		<stop  offset="0.5595" style="stop-color:#00D5EE;stop-opacity:0.4405"/>
		<stop  offset="1" style="stop-color:#00D9E9;stop-opacity:0"/>
	</linearGradient>
	<path class="st0" d="M359.8,230.3c1.1,1.2-40.8,42.3-43,44.4c-2.2,2.1-4.9,2.7-6,1.6c-1.1-1.2-0.2-3.8,1.9-5.9
		C314.9,268.3,358.6,229.1,359.8,230.3z"/>
	
		<radialGradient id="SVGID_2_" cx="2667.0002" cy="-692.3173" r="10.3604" gradientTransform="matrix(0.7183 -0.6953 0.5022 0.4805 -1255.8616 2461.8745)" gradientUnits="userSpaceOnUse">
		<stop  offset="0" style="stop-color:#FFFFFF"/>
		<stop  offset="0.2283" style="stop-color:#FCFCFC;stop-opacity:0.7717"/>
		<stop  offset="1" style="stop-color:#F7F7F7;stop-opacity:0"/>
	</radialGradient>
	<path class="st1" d="M326.2,261.9c1.1,1.2-7.3,10.7-9.5,12.7c-2.2,2.1-4.9,2.7-6,1.6c-1.1-1.2-0.2-3.8,1.9-5.9
		C314.9,268.3,325.1,260.7,326.2,261.9z"/>
</g>
<g>
	
		<linearGradient id="SVGID_3_" gradientUnits="userSpaceOnUse" x1="2820.1409" y1="-992.7589" x2="2874.8789" y2="-992.7589" gradientTransform="matrix(0.7296 -0.6839 0.372 0.3968 -1376.1299 2373.4646)">
		<stop  offset="0" style="stop-color:#00C9FE"/>
		<stop  offset="4.130375e-02" style="stop-color:#00CAFD;stop-opacity:0.9587"/>
		<stop  offset="0.5595" style="stop-color:#00D5EE;stop-opacity:0.4405"/>
		<stop  offset="1" style="stop-color:#00D9E9;stop-opacity:0"/>
	</linearGradient>
	<path class="st2" d="M352.1,13.4c0.9,1-33.3,34.5-35.1,36.2c-1.8,1.7-4,2.2-4.9,1.3c-0.9-1-0.2-3.1,1.6-4.8
		C315.5,44.4,351.2,12.4,352.1,13.4z"/>
	
		<radialGradient id="SVGID_4_" cx="2821.7781" cy="-992.8379" r="8.442" gradientTransform="matrix(0.7183 -0.6953 0.5022 0.4805 -1214.9972 2488.7935)" gradientUnits="userSpaceOnUse">
		<stop  offset="0" style="stop-color:#FFFFFF"/>
		<stop  offset="0.2283" style="stop-color:#FCFCFC;stop-opacity:0.7717"/>
		<stop  offset="1" style="stop-color:#F7F7F7;stop-opacity:0"/>
	</radialGradient>
	<path class="st3" d="M324.7,39.2c0.9,1-5.9,8.7-7.7,10.4c-1.8,1.7-4,2.2-4.9,1.3c-0.9-1-0.2-3.1,1.6-4.8
		C315.5,44.4,323.8,38.2,324.7,39.2z"/>
</g>
<g>
	
		<linearGradient id="SVGID_5_" gradientUnits="userSpaceOnUse" x1="2722.8679" y1="-402.4726" x2="2777.606" y2="-402.4726" gradientTransform="matrix(0.7296 -0.6839 0.372 0.3968 -1376.1299 2373.4646)">
		<stop  offset="0" style="stop-color:#00C9FE"/>
		<stop  offset="4.130375e-02" style="stop-color:#00CAFD;stop-opacity:0.9587"/>
		<stop  offset="0.5595" style="stop-color:#00D5EE;stop-opacity:0.4405"/>
		<stop  offset="1" style="stop-color:#00D9E9;stop-opacity:0"/>
	</linearGradient>
	<path class="st4" d="M500.7,314.2c0.9,1-33.3,34.5-35.1,36.2c-1.8,1.7-4,2.2-4.9,1.3c-0.9-1-0.2-3.1,1.6-4.8
		C464.1,345.1,499.8,313.2,500.7,314.2z"/>
	
		<radialGradient id="SVGID_6_" cx="2724.5049" cy="-402.5516" r="8.442" gradientTransform="matrix(0.7183 -0.6953 0.5022 0.4805 -1292.9254 2438.2805)" gradientUnits="userSpaceOnUse">
		<stop  offset="0" style="stop-color:#FFFFFF"/>
		<stop  offset="0.2283" style="stop-color:#FCFCFC;stop-opacity:0.7717"/>
		<stop  offset="1" style="stop-color:#F7F7F7;stop-opacity:0"/>
	</radialGradient>
	<path class="st5" d="M473.3,339.9c0.9,1-5.9,8.7-7.7,10.4c-1.8,1.7-4,2.2-4.9,1.3c-0.9-1-0.2-3.1,1.6-4.8
		C464.1,345.1,472.4,339,473.3,339.9z"/>
</g>
<g>
	
		<linearGradient id="SVGID_7_" gradientUnits="userSpaceOnUse" x1="2478.3521" y1="-972.106" x2="2519.8948" y2="-972.106" gradientTransform="matrix(0.7296 -0.6839 0.372 0.3968 -1376.1299 2373.4646)">
		<stop  offset="0" style="stop-color:#00C9FE"/>
		<stop  offset="4.130375e-02" style="stop-color:#00CAFD;stop-opacity:0.9587"/>
		<stop  offset="0.5595" style="stop-color:#00D5EE;stop-opacity:0.4405"/>
		<stop  offset="1" style="stop-color:#00D9E9;stop-opacity:0"/>
	</linearGradient>
	<path class="st6" d="M100.8,264.4c0.7,0.7-25.3,26.2-26.6,27.4c-1.4,1.3-3,1.7-3.7,1s-0.2-2.4,1.2-3.6
		C73,287.9,100.1,263.6,100.8,264.4z"/>
	
		<radialGradient id="SVGID_8_" cx="2479.5945" cy="-972.1659" r="6.4069" gradientTransform="matrix(0.7183 -0.6953 0.5022 0.4805 -1221.5574 2483.1543)" gradientUnits="userSpaceOnUse">
		<stop  offset="0" style="stop-color:#FFFFFF"/>
		<stop  offset="0.2283" style="stop-color:#FCFCFC;stop-opacity:0.7717"/>
		<stop  offset="1" style="stop-color:#F7F7F7;stop-opacity:0"/>
	</radialGradient>
	<path class="st7" d="M80,283.9c0.7,0.7-4.5,6.6-5.8,7.9c-1.4,1.3-3,1.7-3.7,1s-0.2-2.4,1.2-3.6C73,287.9,79.3,283.2,80,283.9z"/>
</g>
</svg>
