<?xml version="1.0" encoding="utf-8"?>
<!-- Generator: Adobe Illustrator 23.0.4, SVG Export Plug-In . SVG Version: 6.00 Build 0)  -->
<svg version="1.1" id="Ebene_1" xmlns="http://www.w3.org/2000/svg" xmlns:xlink="http://www.w3.org/1999/xlink" x="0px" y="0px"
	 viewBox="0 0 633 380" style="enable-background:new 0 0 633 380;" xml:space="preserve">
<style type="text/css">
	.st0{fill:url(#SVGID_1_);}
	.st1{fill:url(#SVGID_2_);}
	.st2{fill:url(#SVGID_3_);}
	.st3{fill:url(#SVGID_4_);}
	.st4{fill:url(#SVGID_5_);}
	.st5{fill:url(#SVGID_6_);}
	.st6{fill:url(#SVGID_7_);}
	.st7{fill:url(#SVGID_8_);}
	.st8{fill:url(#SVGID_9_);}
	.st9{fill:url(#SVGID_10_);}
	.st10{fill:url(#SVGID_11_);}
	.st11{fill:url(#SVGID_12_);}
	.st12{fill:url(#SVGID_13_);}
	.st13{fill:url(#SVGID_14_);}
	.st14{fill:url(#SVGID_15_);}
	.st15{fill:url(#SVGID_16_);}
	.st16{fill:url(#SVGID_17_);}
	.st17{fill:url(#SVGID_18_);}
</style>
<g>
	<g>
		
			<linearGradient id="SVGID_1_" gradientUnits="userSpaceOnUse" x1="2766.5767" y1="-880.4973" x2="2822.469" y2="-880.4973" gradientTransform="matrix(0.7296 -0.6839 0.372 0.3968 -1376.1299 2373.4646)">
			<stop  offset="0" style="stop-color:#FF92CE"/>
			<stop  offset="5.289304e-02" style="stop-color:#E899D1;stop-opacity:0.9471"/>
			<stop  offset="0.2034" style="stop-color:#ABAAD7;stop-opacity:0.7966"/>
			<stop  offset="0.3531" style="stop-color:#77B8DD;stop-opacity:0.6469"/>
			<stop  offset="0.4983" style="stop-color:#4CC4E1;stop-opacity:0.5017"/>
			<stop  offset="0.6383" style="stop-color:#2BCDE5;stop-opacity:0.3617"/>
			<stop  offset="0.7715" style="stop-color:#13D4E7;stop-opacity:0.2285"/>
			<stop  offset="0.8951" style="stop-color:#05D8E9;stop-opacity:0.1049"/>
			<stop  offset="1" style="stop-color:#00D9E9;stop-opacity:0"/>
		</linearGradient>
		<path class="st0" d="M355.6,93.8c0.9,1-34,35.2-35.8,36.9c-1.8,1.7-4.1,2.3-5,1.3c-0.9-1-0.2-3.2,1.6-4.9
			C318.3,125.4,354.7,92.8,355.6,93.8z"/>
		
			<radialGradient id="SVGID_2_" cx="2768.2483" cy="-880.5779" r="8.62" gradientTransform="matrix(0.7183 -0.6953 0.5022 0.4805 -1230.2136 2478.7869)" gradientUnits="userSpaceOnUse">
			<stop  offset="0" style="stop-color:#FFFFFF"/>
			<stop  offset="0.2283" style="stop-color:#FCFCFC;stop-opacity:0.7717"/>
			<stop  offset="1" style="stop-color:#F7F7F7;stop-opacity:0"/>
		</radialGradient>
		<path class="st1" d="M327.7,120.1c0.9,1-6,8.9-7.9,10.6c-1.8,1.7-4.1,2.3-5,1.3c-0.9-1-0.2-3.2,1.6-4.9
			C318.3,125.4,326.7,119.1,327.7,120.1z"/>
	</g>
	<g>
		
			<linearGradient id="SVGID_3_" gradientUnits="userSpaceOnUse" x1="2638.7993" y1="-872.4424" x2="2694.6917" y2="-872.4424" gradientTransform="matrix(0.7296 -0.6839 0.372 0.3968 -1376.1299 2373.4646)">
			<stop  offset="0" style="stop-color:#FF92CE"/>
			<stop  offset="5.289304e-02" style="stop-color:#E899D1;stop-opacity:0.9471"/>
			<stop  offset="0.2034" style="stop-color:#ABAAD7;stop-opacity:0.7966"/>
			<stop  offset="0.3531" style="stop-color:#77B8DD;stop-opacity:0.6469"/>
			<stop  offset="0.4983" style="stop-color:#4CC4E1;stop-opacity:0.5017"/>
			<stop  offset="0.6383" style="stop-color:#2BCDE5;stop-opacity:0.3617"/>
			<stop  offset="0.7715" style="stop-color:#13D4E7;stop-opacity:0.2285"/>
			<stop  offset="0.8951" style="stop-color:#05D8E9;stop-opacity:0.1049"/>
			<stop  offset="1" style="stop-color:#00D9E9;stop-opacity:0"/>
		</linearGradient>
		<path class="st2" d="M265.4,184.4c0.9,1-34,35.2-35.8,36.9c-1.8,1.7-4.1,2.3-5,1.3c-0.9-1-0.2-3.2,1.6-4.9
			C228,216,264.4,183.4,265.4,184.4z"/>
		
			<radialGradient id="SVGID_4_" cx="2640.4709" cy="-872.5231" r="8.62" gradientTransform="matrix(0.7183 -0.6953 0.5022 0.4805 -1232.707 2476.6531)" gradientUnits="userSpaceOnUse">
			<stop  offset="0" style="stop-color:#FFFFFF"/>
			<stop  offset="0.2283" style="stop-color:#FCFCFC;stop-opacity:0.7717"/>
			<stop  offset="1" style="stop-color:#F7F7F7;stop-opacity:0"/>
		</radialGradient>
		<path class="st3" d="M237.4,210.7c0.9,1-6,8.9-7.9,10.6c-1.8,1.7-4.1,2.3-5,1.3c-0.9-1-0.2-3.2,1.6-4.9
			C228,216,236.5,209.7,237.4,210.7z"/>
	</g>
	<g>
		
			<linearGradient id="SVGID_5_" gradientUnits="userSpaceOnUse" x1="2725.6367" y1="-564.2164" x2="2874.6348" y2="-564.2164" gradientTransform="matrix(0.7296 -0.6839 0.372 0.3968 -1376.1299 2373.4646)">
			<stop  offset="0" style="stop-color:#FF92CE"/>
			<stop  offset="5.289304e-02" style="stop-color:#E899D1;stop-opacity:0.9471"/>
			<stop  offset="0.2034" style="stop-color:#ABAAD7;stop-opacity:0.7966"/>
			<stop  offset="0.3531" style="stop-color:#77B8DD;stop-opacity:0.6469"/>
			<stop  offset="0.4983" style="stop-color:#4CC4E1;stop-opacity:0.5017"/>
			<stop  offset="0.6383" style="stop-color:#2BCDE5;stop-opacity:0.3617"/>
			<stop  offset="0.7715" style="stop-color:#13D4E7;stop-opacity:0.2285"/>
			<stop  offset="0.8951" style="stop-color:#05D8E9;stop-opacity:0.1049"/>
			<stop  offset="1" style="stop-color:#00D9E9;stop-opacity:0"/>
		</linearGradient>
		<path class="st4" d="M511.3,183.6c2.5,2.6-90.6,93.9-95.4,98.4c-4.9,4.6-10.8,6.1-13.3,3.5c-2.5-2.6-0.5-8.5,4.3-13
			C411.8,267.9,508.8,181,511.3,183.6z"/>
		
			<radialGradient id="SVGID_6_" cx="2730.093" cy="-564.4315" r="22.9791" gradientTransform="matrix(0.7183 -0.6953 0.5022 0.4805 -1271.7928 2451.8923)" gradientUnits="userSpaceOnUse">
			<stop  offset="0" style="stop-color:#FFFFFF"/>
			<stop  offset="0.2283" style="stop-color:#FCFCFC;stop-opacity:0.7717"/>
			<stop  offset="1" style="stop-color:#F7F7F7;stop-opacity:0"/>
		</radialGradient>
		<path class="st5" d="M436.8,253.8c2.5,2.6-16.1,23.7-21,28.3c-4.9,4.6-10.8,6.1-13.3,3.5c-2.5-2.6-0.5-8.5,4.3-13
			C411.8,267.9,434.4,251.1,436.8,253.8z"/>
	</g>
	<g>
		
			<linearGradient id="SVGID_7_" gradientUnits="userSpaceOnUse" x1="2664.991" y1="-692.2204" x2="2732.1687" y2="-692.2204" gradientTransform="matrix(0.7296 -0.6839 0.372 0.3968 -1376.1299 2373.4646)">
			<stop  offset="0" style="stop-color:#00C9FE"/>
			<stop  offset="4.130375e-02" style="stop-color:#00CAFD;stop-opacity:0.9587"/>
			<stop  offset="0.5595" style="stop-color:#00D5EE;stop-opacity:0.4405"/>
			<stop  offset="1" style="stop-color:#00D9E9;stop-opacity:0"/>
		</linearGradient>
		<path class="st6" d="M359.8,230.3c1.1,1.2-40.8,42.3-43,44.4c-2.2,2.1-4.9,2.7-6,1.6c-1.1-1.2-0.2-3.8,1.9-5.9
			C314.9,268.3,358.6,229.1,359.8,230.3z"/>
		
			<radialGradient id="SVGID_8_" cx="2667.0002" cy="-692.3173" r="10.3604" gradientTransform="matrix(0.7183 -0.6953 0.5022 0.4805 -1255.8616 2461.8745)" gradientUnits="userSpaceOnUse">
			<stop  offset="0" style="stop-color:#FFFFFF"/>
			<stop  offset="0.2283" style="stop-color:#FCFCFC;stop-opacity:0.7717"/>
			<stop  offset="1" style="stop-color:#F7F7F7;stop-opacity:0"/>
		</radialGradient>
		<path class="st7" d="M326.2,261.9c1.1,1.2-7.3,10.7-9.5,12.7c-2.2,2.1-4.9,2.7-6,1.6c-1.1-1.2-0.2-3.8,1.9-5.9
			C314.9,268.3,325.1,260.7,326.2,261.9z"/>
	</g>
	<g>
		
			<linearGradient id="SVGID_9_" gradientUnits="userSpaceOnUse" x1="2820.1409" y1="-992.7589" x2="2874.8789" y2="-992.7589" gradientTransform="matrix(0.7296 -0.6839 0.372 0.3968 -1376.1299 2373.4646)">
			<stop  offset="0" style="stop-color:#00C9FE"/>
			<stop  offset="4.130375e-02" style="stop-color:#00CAFD;stop-opacity:0.9587"/>
			<stop  offset="0.5595" style="stop-color:#00D5EE;stop-opacity:0.4405"/>
			<stop  offset="1" style="stop-color:#00D9E9;stop-opacity:0"/>
		</linearGradient>
		<path class="st8" d="M352.1,13.4c0.9,1-33.3,34.5-35.1,36.2c-1.8,1.7-4,2.2-4.9,1.3c-0.9-1-0.2-3.1,1.6-4.8
			C315.5,44.4,351.2,12.4,352.1,13.4z"/>
		
			<radialGradient id="SVGID_10_" cx="2821.7781" cy="-992.8379" r="8.442" gradientTransform="matrix(0.7183 -0.6953 0.5022 0.4805 -1214.9972 2488.7935)" gradientUnits="userSpaceOnUse">
			<stop  offset="0" style="stop-color:#FFFFFF"/>
			<stop  offset="0.2283" style="stop-color:#FCFCFC;stop-opacity:0.7717"/>
			<stop  offset="1" style="stop-color:#F7F7F7;stop-opacity:0"/>
		</radialGradient>
		<path class="st9" d="M324.7,39.2c0.9,1-5.9,8.7-7.7,10.4c-1.8,1.7-4,2.2-4.9,1.3c-0.9-1-0.2-3.1,1.6-4.8
			C315.5,44.4,323.8,38.2,324.7,39.2z"/>
	</g>
	<g>
		
			<linearGradient id="SVGID_11_" gradientUnits="userSpaceOnUse" x1="2722.8679" y1="-402.4726" x2="2777.606" y2="-402.4726" gradientTransform="matrix(0.7296 -0.6839 0.372 0.3968 -1376.1299 2373.4646)">
			<stop  offset="0" style="stop-color:#00C9FE"/>
			<stop  offset="4.130375e-02" style="stop-color:#00CAFD;stop-opacity:0.9587"/>
			<stop  offset="0.5595" style="stop-color:#00D5EE;stop-opacity:0.4405"/>
			<stop  offset="1" style="stop-color:#00D9E9;stop-opacity:0"/>
		</linearGradient>
		<path class="st10" d="M500.7,314.2c0.9,1-33.3,34.5-35.1,36.2c-1.8,1.7-4,2.2-4.9,1.3c-0.9-1-0.2-3.1,1.6-4.8
			C464.1,345.1,499.8,313.2,500.7,314.2z"/>
		
			<radialGradient id="SVGID_12_" cx="2724.5049" cy="-402.5516" r="8.442" gradientTransform="matrix(0.7183 -0.6953 0.5022 0.4805 -1292.9254 2438.2805)" gradientUnits="userSpaceOnUse">
			<stop  offset="0" style="stop-color:#FFFFFF"/>
			<stop  offset="0.2283" style="stop-color:#FCFCFC;stop-opacity:0.7717"/>
			<stop  offset="1" style="stop-color:#F7F7F7;stop-opacity:0"/>
		</radialGradient>
		<path class="st11" d="M473.3,339.9c0.9,1-5.9,8.7-7.7,10.4c-1.8,1.7-4,2.2-4.9,1.3c-0.9-1-0.2-3.1,1.6-4.8
			C464.1,345.1,472.4,339,473.3,339.9z"/>
	</g>
	<g>
		
			<linearGradient id="SVGID_13_" gradientUnits="userSpaceOnUse" x1="2478.3521" y1="-972.106" x2="2519.8948" y2="-972.106" gradientTransform="matrix(0.7296 -0.6839 0.372 0.3968 -1376.1299 2373.4646)">
			<stop  offset="0" style="stop-color:#00C9FE"/>
			<stop  offset="4.130375e-02" style="stop-color:#00CAFD;stop-opacity:0.9587"/>
			<stop  offset="0.5595" style="stop-color:#00D5EE;stop-opacity:0.4405"/>
			<stop  offset="1" style="stop-color:#00D9E9;stop-opacity:0"/>
		</linearGradient>
		<path class="st12" d="M100.8,264.4c0.7,0.7-25.3,26.2-26.6,27.4c-1.4,1.3-3,1.7-3.7,1s-0.2-2.4,1.2-3.6
			C73,287.9,100.1,263.6,100.8,264.4z"/>
		
			<radialGradient id="SVGID_14_" cx="2479.5945" cy="-972.1659" r="6.4069" gradientTransform="matrix(0.7183 -0.6953 0.5022 0.4805 -1221.5574 2483.1543)" gradientUnits="userSpaceOnUse">
			<stop  offset="0" style="stop-color:#FFFFFF"/>
			<stop  offset="0.2283" style="stop-color:#FCFCFC;stop-opacity:0.7717"/>
			<stop  offset="1" style="stop-color:#F7F7F7;stop-opacity:0"/>
		</radialGradient>
		<path class="st13" d="M80,283.9c0.7,0.7-4.5,6.6-5.8,7.9c-1.4,1.3-3,1.7-3.7,1s-0.2-2.4,1.2-3.6C73,287.9,79.3,283.2,80,283.9z"/>
	</g>
	<g>
		
			<linearGradient id="SVGID_15_" gradientUnits="userSpaceOnUse" x1="2885.9121" y1="-722.8849" x2="2908.019" y2="-722.8849" gradientTransform="matrix(0.7296 -0.6839 0.372 0.3968 -1376.1299 2373.4646)">
			<stop  offset="0" style="stop-color:#00C9FE"/>
			<stop  offset="4.130375e-02" style="stop-color:#00CAFD;stop-opacity:0.9587"/>
			<stop  offset="0.5595" style="stop-color:#00D5EE;stop-opacity:0.4405"/>
			<stop  offset="1" style="stop-color:#00D9E9;stop-opacity:0"/>
		</linearGradient>
		<path class="st14" d="M476.6,97.8c0.4,0.4-13.4,13.9-14.2,14.6c-0.7,0.7-1.6,0.9-2,0.5c-0.4-0.4-0.1-1.3,0.6-1.9
			C461.9,110.3,476.3,97.4,476.6,97.8z"/>
		
			<radialGradient id="SVGID_16_" cx="2886.5732" cy="-722.9168" r="3.4094" gradientTransform="matrix(0.7183 -0.6953 0.5022 0.4805 -1249.3958 2466.9438)" gradientUnits="userSpaceOnUse">
			<stop  offset="0" style="stop-color:#FFFFFF"/>
			<stop  offset="0.2283" style="stop-color:#FCFCFC;stop-opacity:0.7717"/>
			<stop  offset="1" style="stop-color:#F7F7F7;stop-opacity:0"/>
		</radialGradient>
		<path class="st15" d="M465.6,108.2c0.4,0.4-2.4,3.5-3.1,4.2c-0.7,0.7-1.6,0.9-2,0.5c-0.4-0.4-0.1-1.3,0.6-1.9
			C461.9,110.3,465.2,107.8,465.6,108.2z"/>
	</g>
	<g>
		
			<linearGradient id="SVGID_17_" gradientUnits="userSpaceOnUse" x1="2574.8989" y1="-733.8348" x2="2597.0056" y2="-733.8348" gradientTransform="matrix(0.7296 -0.6839 0.372 0.3968 -1376.1299 2373.4646)">
			<stop  offset="0" style="stop-color:#00C9FE"/>
			<stop  offset="4.130375e-02" style="stop-color:#00CAFD;stop-opacity:0.9587"/>
			<stop  offset="0.5595" style="stop-color:#00D5EE;stop-opacity:0.4405"/>
			<stop  offset="1" style="stop-color:#00D9E9;stop-opacity:0"/>
		</linearGradient>
		<path class="st16" d="M245.7,306.2c0.4,0.4-13.4,13.9-14.2,14.6c-0.7,0.7-1.6,0.9-2,0.5c-0.4-0.4-0.1-1.3,0.6-1.9
			C230.9,318.7,245.3,305.8,245.7,306.2z"/>
		
			<radialGradient id="SVGID_18_" cx="2575.5601" cy="-733.8666" r="3.4094" gradientTransform="matrix(0.7183 -0.6953 0.5022 0.4805 -1251.4878 2464.3071)" gradientUnits="userSpaceOnUse">
			<stop  offset="0" style="stop-color:#FFFFFF"/>
			<stop  offset="0.2283" style="stop-color:#FCFCFC;stop-opacity:0.7717"/>
			<stop  offset="1" style="stop-color:#F7F7F7;stop-opacity:0"/>
		</radialGradient>
		<path class="st17" d="M234.6,316.6c0.4,0.4-2.4,3.5-3.1,4.2c-0.7,0.7-1.6,0.9-2,0.5c-0.4-0.4-0.1-1.3,0.6-1.9
			C230.9,318.7,234.2,316.2,234.6,316.6z"/>
	</g>
</g>
</svg>
